REM DIRINDEX 1\2,1\3,1\4,1\5,1\6
REM DIRNAME cjc091,folder01,folder02,folder03,folder04,folder05
TITLE ""
FILE "CD1-03.mp3" MP3
  TRACK 01 AUDIO
    TITLE "6:cjc091_0003"
    INDEX 01 00:00:00
  TRACK 02 AUDIO
    TITLE "0:"
    INDEX 01 00:01:34
  TRACK 03 AUDIO
    TITLE "6:cjc091_0004"
    INDEX 01 00:01:50
  TRACK 04 AUDIO
    TITLE "0:"
    INDEX 01 00:03:57
  TRACK 05 AUDIO
    TITLE "2:cjc091_0005"
    INDEX 01 00:05:05
  TRACK 06 AUDIO
    TITLE "0:"
    INDEX 01 00:06:41
  TRACK 07 AUDIO
    TITLE "3:cjc091_0006"
    INDEX 01 00:06:49
  TRACK 08 AUDIO
    TITLE "0:"
    INDEX 01 00:08:40
  TRACK 09 AUDIO
    TITLE "4:cjc091_0007"
    INDEX 01 00:08:64
  TRACK 10 AUDIO
    TITLE "0:"
    INDEX 01 00:12:16
  TRACK 11 AUDIO
    TITLE "2:cjc091_0008"
    INDEX 01 00:13:22
  TRACK 12 AUDIO
    TITLE "0:"
    INDEX 01 00:14:62
  TRACK 13 AUDIO
    TITLE "3:cjc091_0009"
    INDEX 01 00:15:09
  TRACK 14 AUDIO
    TITLE "0:"
    INDEX 01 00:17:06
  TRACK 15 AUDIO
    TITLE "4:cjc091_0010"
    INDEX 01 00:17:41
  TRACK 16 AUDIO
    TITLE "0:"
    INDEX 01 00:20:36
  TRACK 17 AUDIO
    TITLE "2:cjc091_0011"
    INDEX 01 00:21:39
  TRACK 18 AUDIO
    TITLE "0:"
    INDEX 01 00:23:14
  TRACK 19 AUDIO
    TITLE "3:cjc091_0012"
    INDEX 01 00:23:28
  TRACK 20 AUDIO
    TITLE "0:"
    INDEX 01 00:24:47
  TRACK 21 AUDIO
    TITLE "4:cjc091_0013"
    INDEX 01 00:24:57
  TRACK 22 AUDIO
    TITLE "0:"
    INDEX 01 00:28:33
  TRACK 23 AUDIO
    TITLE "2:cjc091_0014"
    INDEX 01 00:29:42
  TRACK 24 AUDIO
    TITLE "0:"
    INDEX 01 00:31:08
  TRACK 25 AUDIO
    TITLE "3:cjc091_0015"
    INDEX 01 00:31:24
  TRACK 26 AUDIO
    TITLE "0:"
    INDEX 01 00:33:05
  TRACK 27 AUDIO
    TITLE "4:cjc091_0016"
    INDEX 01 00:33:24
  TRACK 28 AUDIO
    TITLE "0:"
    INDEX 01 00:37:48
  TRACK 29 AUDIO
    TITLE "2:cjc091_0017"
    INDEX 01 00:38:59
  TRACK 30 AUDIO
    TITLE "0:"
    INDEX 01 00:40:34
  TRACK 31 AUDIO
    TITLE "3:cjc091_0018"
    INDEX 01 00:40:44
  TRACK 32 AUDIO
    TITLE "0:"
    INDEX 01 00:42:41
  TRACK 33 AUDIO
    TITLE "4:cjc091_0019"
    INDEX 01 00:42:66
  TRACK 34 AUDIO
    TITLE "0:"
    INDEX 01 00:46:29
  TRACK 35 AUDIO
    TITLE "2:cjc091_0020"
    INDEX 01 00:47:28
  TRACK 36 AUDIO
    TITLE "0:"
    INDEX 01 00:49:08
  TRACK 37 AUDIO
    TITLE "3:cjc091_0021"
    INDEX 01 00:49:20
  TRACK 38 AUDIO
    TITLE "0:"
    INDEX 01 00:51:05
  TRACK 39 AUDIO
    TITLE "4:cjc091_0022"
    INDEX 01 00:51:40
  TRACK 40 AUDIO
    TITLE "0:"
    INDEX 01 00:53:35
  TRACK 41 AUDIO
    TITLE "2:cjc091_0023"
    INDEX 01 00:54:36
  TRACK 42 AUDIO
    TITLE "0:"
    INDEX 01 00:56:45
  TRACK 43 AUDIO
    TITLE "3:cjc091_0024"
    INDEX 01 00:56:65
  TRACK 44 AUDIO
    TITLE "0:"
    INDEX 01 00:59:24
  TRACK 45 AUDIO
    TITLE "4:cjc091_0025"
    INDEX 01 00:59:45
  TRACK 46 AUDIO
    TITLE "0:"
    INDEX 01 01:02:18
  TRACK 47 AUDIO
    TITLE "2:cjc091_0026"
    INDEX 01 01:03:16
  TRACK 48 AUDIO
    TITLE "0:"
    INDEX 01 01:05:05
  TRACK 49 AUDIO
    TITLE "3:cjc091_0027"
    INDEX 01 01:05:17
  TRACK 50 AUDIO
    TITLE "0:"
    INDEX 01 01:06:63
  TRACK 51 AUDIO
    TITLE "4:cjc091_0028"
    INDEX 01 01:07:15
  TRACK 52 AUDIO
    TITLE "0:"
    INDEX 01 01:10:53
  TRACK 53 AUDIO
    TITLE "2:cjc091_0029"
    INDEX 01 01:11:58
  TRACK 54 AUDIO
    TITLE "0:"
    INDEX 01 01:13:51
  TRACK 55 AUDIO
    TITLE "3:cjc091_0030"
    INDEX 01 01:13:65
  TRACK 56 AUDIO
    TITLE "0:"
    INDEX 01 01:15:72
  TRACK 57 AUDIO
    TITLE "4:cjc091_0031"
    INDEX 01 01:16:32
  TRACK 58 AUDIO
    TITLE "0:"
    INDEX 01 01:19:40
  TRACK 59 AUDIO
    TITLE "2:cjc091_0032"
    INDEX 01 01:20:44
  TRACK 60 AUDIO
    TITLE "0:"
    INDEX 01 01:21:53
  TRACK 61 AUDIO
    TITLE "3:cjc091_0033"
    INDEX 01 01:22:09
  TRACK 62 AUDIO
    TITLE "0:"
    INDEX 01 01:23:60
  TRACK 63 AUDIO
    TITLE "4:cjc091_0034"
    INDEX 01 01:24:30
  TRACK 64 AUDIO
    TITLE "0:"
    INDEX 01 01:28:00
  TRACK 65 AUDIO
    TITLE "2:cjc091_0035"
    INDEX 01 01:28:71
  TRACK 66 AUDIO
    TITLE "0:"
    INDEX 01 01:30:36
  TRACK 67 AUDIO
    TITLE "3:cjc091_0036"
    INDEX 01 01:30:50
  TRACK 68 AUDIO
    TITLE "0:"
    INDEX 01 01:32:51
  TRACK 69 AUDIO
    TITLE "4:cjc091_0037"
    INDEX 01 01:32:74
  TRACK 70 AUDIO
    TITLE "0:"
    INDEX 01 01:38:06
  TRACK 71 AUDIO
    TITLE "2:cjc091_0038"
    INDEX 01 01:39:08
  TRACK 72 AUDIO
    TITLE "0:"
    INDEX 01 01:41:03
  TRACK 73 AUDIO
    TITLE "3:cjc091_0039"
    INDEX 01 01:41:07
  TRACK 74 AUDIO
    TITLE "0:"
    INDEX 01 01:42:63
  TRACK 75 AUDIO
    TITLE "4:cjc091_0040"
    INDEX 01 01:43:19
  TRACK 76 AUDIO
    TITLE "0:"
    INDEX 01 01:46:29
  TRACK 77 AUDIO
    TITLE "2:cjc091_0041"
    INDEX 01 01:47:27
  TRACK 78 AUDIO
    TITLE "0:"
    INDEX 01 01:50:04
  TRACK 79 AUDIO
    TITLE "3:cjc091_0042"
    INDEX 01 01:50:15
  TRACK 80 AUDIO
    TITLE "0:"
    INDEX 01 01:52:24
  TRACK 81 AUDIO
    TITLE "4:cjc091_0043"
    INDEX 01 01:53:00
  TRACK 82 AUDIO
    TITLE "0:"
    INDEX 01 01:56:18
  TRACK 83 AUDIO
    TITLE "2:cjc091_0044"
    INDEX 01 01:57:21
  TRACK 84 AUDIO
    TITLE "0:"
    INDEX 01 01:58:54
  TRACK 85 AUDIO
    TITLE "3:cjc091_0045"
    INDEX 01 01:58:62
  TRACK 86 AUDIO
    TITLE "0:"
    INDEX 01 02:00:45
  TRACK 87 AUDIO
    TITLE "4:cjc091_0046"
    INDEX 01 02:01:01
  TRACK 88 AUDIO
    TITLE "0:"
    INDEX 01 02:03:18
  TRACK 89 AUDIO
    TITLE "2:cjc091_0047"
    INDEX 01 02:04:19
  TRACK 90 AUDIO
    TITLE "0:"
    INDEX 01 02:05:56
  TRACK 91 AUDIO
    TITLE "3:cjc091_0048"
    INDEX 01 02:05:66
  TRACK 92 AUDIO
    TITLE "0:"
    INDEX 01 02:07:37
  TRACK 93 AUDIO
    TITLE "4:cjc091_0049"
    INDEX 01 02:07:67
  TRACK 94 AUDIO
    TITLE "0:"
    INDEX 01 02:11:23
